<?xml version="1.0" encoding="UTF-8"?>
<svg width="35px" height="35px" viewBox="0 0 35 35" version="1.1" xmlns="http://www.w3.org/2000/svg" xmlns:xlink="http://www.w3.org/1999/xlink">
    <!-- Generator: Sketch 50 (54983) - http://www.bohemiancoding.com/sketch -->
    <title>google-plus</title>
    <desc>Created with Sketch.</desc>
    <defs></defs>
    <g id="Page-1" stroke="none" stroke-width="1" fill="none" fill-rule="evenodd">
        <g id="Card" transform="translate(-996.000000, -381.000000)" fill-rule="nonzero">
            <g id="google-plus" transform="translate(996.000000, 381.000000)">
                <ellipse id="XMLID_30_" fill="#DC4E41" cx="17.3754867" cy="17.5297807" rx="17.3754867" ry="17.2230702"></ellipse>
                <g id="Group" transform="translate(5.884956, 11.052632)">
                    <path d="M0.164469027,7.24807018 C0.102831858,10.2114035 2.1619469,13.0393421 4.99446903,13.9616228 C7.66252212,14.8501316 10.9429204,14.1854386 12.7183186,11.9205702 C14.0145575,10.3335965 14.309115,8.2179386 14.1688053,6.24135965 C11.8838938,6.22109649 9.5989823,6.22785088 7.31747788,6.23122807 C7.31376106,7.03807018 7.31747788,7.84184211 7.32088496,8.64868421 C8.6889823,8.68614035 10.0573894,8.66894737 11.4254867,8.69627193 C11.0801327,9.86938596 10.2934071,10.9611404 9.09938053,11.3848246 C6.79402655,12.3918421 3.85247788,11.0762719 3.12707965,8.67907895 C2.25146018,6.38350877 3.6849115,3.61328947 6.05159292,2.94552632 C7.51911504,2.43372807 9.0309292,3.01 10.2865929,3.76618421 C10.9227876,3.17609649 11.5180973,2.54548246 12.1028761,1.90811404 C10.6762389,0.724868421 8.84292035,-0.000614035088 6.95818584,0.15872807 C3.26026549,0.202324561 0.024159292,3.58627193 0.164469027,7.24807018 Z" id="Shape" fill="#DC4E41"></path>
                    <path d="M18.6156637,4.19631579 C18.6088496,4.87114035 18.6017257,5.54934211 18.5983186,6.22385965 C17.914115,6.23061404 17.2336283,6.23399123 16.5528319,6.23736842 C16.5528319,6.91219298 16.5528319,7.58333333 16.5528319,8.25815789 C17.2336283,8.26153509 17.9178319,8.26491228 18.5983186,8.27197368 C18.6051327,8.94679825 18.6051327,9.62131579 18.6119469,10.2995175 C19.2893363,10.2995175 19.9701327,10.2961404 20.6506195,10.2995175 C20.6543363,9.62131579 20.6574336,8.94679825 20.6645575,8.26859649 C21.3450442,8.2652193 22.0292478,8.26184211 22.7100442,8.25846491 C22.7100442,7.58364035 22.7100442,6.9125 22.7100442,6.23767544 C22.0295575,6.23429825 21.345354,6.23092105 20.6645575,6.22416667 C20.6608407,5.54934211 20.6543363,4.87114035 20.6506195,4.19662281 C19.9701327,4.19631579 19.2927434,4.19631579 18.6156637,4.19631579 Z" id="Shape" fill="#DC4E41"></path>
                    <g fill="#FFFFFF" id="Shape">
                        <path d="M0.164469027,7.24807018 C0.024159292,3.58627193 3.25995575,0.202324561 6.95787611,0.158421053 C8.84261062,-0.000921052632 10.6762389,0.724561404 12.1025664,1.90780702 C11.5174779,2.54548246 10.9221681,3.17578947 10.2862832,3.76587719 C9.03061947,3.00969298 7.51880531,2.43342105 6.05128319,2.9452193 C3.68429204,3.61328947 2.25084071,6.38350877 3.12676991,8.67877193 C3.85216814,11.0759649 6.79371681,12.3915351 9.0990708,11.3845175 C10.2927876,10.9608333 11.079823,9.86907895 11.425177,8.69596491 C10.0570796,8.66894737 8.68867257,8.68583333 7.32057522,8.64837719 C7.31716814,7.84153509 7.31376106,7.03776316 7.31716814,6.23092105 C9.59867257,6.22754386 11.8835841,6.22078947 14.1684956,6.24105263 C14.3088053,8.2179386 14.0145575,10.3335965 12.7180088,11.9202632 C10.9426106,14.1851316 7.66252212,14.8498246 4.99415929,13.9613158 C2.16225664,13.0393421 0.102831858,10.2114035 0.164469027,7.24807018 Z"></path>
                        <path d="M18.6156637,4.19631579 C19.2930531,4.19631579 19.9701327,4.19631579 20.6506195,4.19631579 C20.6543363,4.87114035 20.6608407,5.54934211 20.6645575,6.22385965 C21.3450442,6.23061404 22.0292478,6.23399123 22.7100442,6.23736842 C22.7100442,6.91219298 22.7100442,7.58333333 22.7100442,8.25815789 C22.0295575,8.26153509 21.345354,8.26491228 20.6645575,8.26828947 C20.6577434,8.94649123 20.6543363,9.62100877 20.6506195,10.2992105 C19.9701327,10.2958333 19.2890265,10.2992105 18.6119469,10.2992105 C18.6054425,9.62100877 18.6054425,8.94649123 18.5983186,8.27166667 C17.9178319,8.26460526 17.2336283,8.26153509 16.5528319,8.25785088 C16.5528319,7.58302632 16.5528319,6.91188596 16.5528319,6.2370614 C17.2336283,6.23368421 17.9144248,6.23030702 18.5983186,6.22355263 C18.6017257,5.54934211 18.6085398,4.87114035 18.6156637,4.19631579 Z"></path>
                    </g>
                </g>
            </g>
        </g>
    </g>
</svg>