<?xml version="1.0" encoding="UTF-8"?>
<svg width="35px" height="35px" viewBox="0 0 35 35" version="1.1" xmlns="http://www.w3.org/2000/svg" xmlns:xlink="http://www.w3.org/1999/xlink">
    <!-- Generator: Sketch 50 (54983) - http://www.bohemiancoding.com/sketch -->
    <title>twitter(1)</title>
    <desc>Created with Sketch.</desc>
    <defs></defs>
    <g id="Page-1" stroke="none" stroke-width="1" fill="none" fill-rule="evenodd">
        <g id="Card" transform="translate(-931.000000, -381.000000)" fill-rule="nonzero">
            <g id="twitter(1)" transform="translate(931.000000, 381.000000)">
                <circle id="Oval" fill="#55ACEE" cx="17.5" cy="17.5" r="17.5"></circle>
                <path d="M27.7777778,12.5286328 C27.0421372,12.8631272 26.2508033,13.0893658 25.4209125,13.1904045 C26.2682457,12.6698359 26.9185104,11.8461514 27.2254353,10.8630644 C26.4325714,11.3453513 25.5540255,11.6952211 24.6197864,11.8838056 C23.8712935,11.0663968 22.8048594,10.5555556 21.6239787,10.5555556 C19.3583035,10.5555556 17.520732,12.4398318 17.520732,14.7630927 C17.520732,15.0928802 17.5571468,15.4138818 17.6275284,15.7220183 C14.2173873,15.5466127 11.193733,13.8716307 9.16980324,11.3252691 C8.81667126,11.9465625 8.61409468,12.6698359 8.61409468,13.4408045 C8.61409468,14.9002165 9.33902506,16.1886159 10.4394259,16.942954 C9.76712874,16.9213028 9.13400043,16.7320907 8.58104593,16.4161097 C8.58073992,16.4339954 8.58073992,16.4518811 8.58073992,16.4694531 C8.58073992,18.5081113 9.9957159,20.2085098 11.8724563,20.5947786 C11.5285045,20.6914243 11.1652743,20.7425712 10.7916399,20.7425712 C10.5266379,20.7425712 10.2698981,20.716527 10.0195844,20.6675766 C10.5416322,22.3387932 12.0566725,23.5553359 13.8526271,23.5895384 C12.4480553,24.7182215 10.6790293,25.3906618 8.75608189,25.3906618 C8.42559442,25.3906618 8.09816702,25.3708933 7.77777778,25.3316703 C9.5927048,26.5259343 11.7500536,27.2222222 14.0671379,27.2222222 C21.6144925,27.2222222 25.7419138,20.8109762 25.7419138,15.2504001 C25.7419138,15.0680912 25.7379357,14.88641 25.7299795,14.7062977 C26.5323296,14.1132448 27.2278834,13.3723995 27.7777778,12.5286328 Z" id="Shape" fill="#FFFFFF"></path>
            </g>
        </g>
    </g>
</svg>