<?xml version="1.0" encoding="UTF-8"?>
<svg width="94px" height="94px" viewBox="0 0 94 94" version="1.1" xmlns="http://www.w3.org/2000/svg" xmlns:xlink="http://www.w3.org/1999/xlink">
    <!-- Generator: Sketch 46.2 (44496) - http://www.bohemiancoding.com/sketch -->
    <title>percentage</title>
    <desc>Created with Sketch.</desc>
    <defs></defs>
    <g id="Welcome" stroke="none" stroke-width="1" fill="none" fill-rule="evenodd">
        <g id="post" transform="translate(-782.000000, -1730.000000)" fill-rule="nonzero">
            <g id="percentage" transform="translate(782.000000, 1730.000000)">
                <path d="M36.6758737,35.3263693 C34.910372,33.5578769 32.0693348,33.5578769 30.3241263,35.3263693 C28.5586246,37.0948617 28.5586246,39.9407115 30.3241263,41.6888763 C32.089628,43.4370412 34.9306652,43.4370412 36.6758737,41.6888763 C38.4413754,39.920384 38.4413754,37.0745342 36.6758737,35.3263693 Z" id="Shape" fill="#FFF"></path>
                <path d="M57.3176399,52.3111237 C55.5506463,54.0592885 55.5709565,56.9254658 57.3176399,58.6736307 C59.0643232,60.4421231 61.9280715,60.4421231 63.6747548,58.6736307 C65.4417484,56.9254658 65.4417484,54.0592885 63.6747548,52.3111237 C61.9077612,50.5629588 59.0643232,50.5629588 57.3176399,52.3111237 Z" id="Shape" fill="#FFF"></path>
                <path d="M80.2455805,13.757138 C61.8835417,-4.58571266 32.121004,-4.58571266 13.7589652,13.757138 C-3.89909762,31.4351092 -4.56396378,59.6729304 11.7839216,78.1331127 L12.2532389,78.5242182 C10.4737442,82.3570527 7.42318186,87.0894299 2.57356992,89.4751738 C0.970069202,90.257385 1.34161205,92.6431289 3.10155187,92.9169028 C8.4009262,93.7382244 16.0077772,92.8191264 23.0866462,87.4609802 L23.1844207,87.5392013 C41.1944714,98.1381619 64.7581101,95.6937522 80.2260256,80.2255274 C98.5880644,61.8826768 98.5880644,32.1195439 80.2455805,13.757138 Z M22.7933229,38.2012353 C22.7933229,32.4519836 27.4864958,27.7587169 33.2356325,27.7587169 C38.9847692,27.7587169 43.6779421,32.4519836 43.6779421,38.2012353 C43.6779421,43.950487 38.9847692,48.6437537 33.2356325,48.6437537 C27.4669409,48.6437537 22.8128778,43.9700423 22.7933229,38.2012353 Z M35.2497858,65.1679635 C34.3502611,66.2435037 32.7467603,66.399946 31.6712416,65.5004032 C30.5957228,64.6008604 30.4392837,62.9973276 31.3388085,61.9217873 L58.7547598,28.9124783 C59.6542846,27.836938 61.2577854,27.6804958 62.3333041,28.5800386 C63.4088229,29.4795814 63.565262,31.0831142 62.6657372,32.1586544 L35.2497858,65.1679635 Z M60.7689132,66.2435037 C55.0197765,66.2435037 50.3266036,61.5502371 50.3266036,55.8009854 C50.3266036,50.0517337 55.0197765,45.358467 60.7689132,45.358467 C66.5180499,45.358467 71.2112228,50.0517337 71.2112228,55.8009854 C71.2112228,61.5502371 66.5376048,66.2435037 60.7689132,66.2435037 Z" id="Shape" fill="#FFFFFF"></path>
            </g>
        </g>
    </g>
</svg>